<svg xmlns="http://www.w3.org/2000/svg" width="400" height="225" version="1.0" viewBox="0 0 300 168.75"><defs><clipPath id="a"><path d="M.223 0h299.554v168.5H.223Zm0 0"/></clipPath><clipPath id="b"><path d="M114.34 32.328h71.144v67.399H114.34Zm0 0"/></clipPath><clipPath id="c"><path d="m137.625 41.059-4.836-4.79c4.547-.601 11.844-1.136 17.05-1.081 6.415-.067 16.02.765 19.72 1.507 6.703 1.305 12.851 7.246 14.304 13.825v.035c.969 4.703 1.453 9.562 1.461 14.855.008 5.297-.488 10.168-1.46 14.871v.031a16.3 16.3 0 0 1-1.895 4.727l-24.067-23.863c1.54-.973 3.383-1.418 5.227-1.426 2.543.012 5.105.855 6.828 2.777 3.29 3.692 6.594 7.82 9.559 11.84q.551-4.463.547-8.957c-.008-4.918-.45-9.422-1.348-13.758-1-4.492-5.555-8.87-10.164-9.765h-.016c-3-.602-12.363-1.477-18.66-1.41h-.059c-3.648-.047-8.32.226-12.191.582m46.922 53.976q.375.37.574.852.206.485.207 1.011a2.633 2.633 0 0 1-4.488 1.887l-6.461-6.41a16.7 16.7 0 0 1-4.813 1.762c-3.562.71-12.582 1.511-18.972 1.511h-.754c-6.41.07-16.02-.765-19.719-1.507-6.7-1.313-12.848-7.246-14.3-13.829l-.008-.035c-.973-4.703-1.45-9.562-1.461-14.855-.008-5.297.488-10.176 1.46-14.871l.008-.035c.832-3.774 3.207-7.328 6.348-9.922l-3.563-3.532a2.7 2.7 0 0 1-.597-.855 2.6 2.6 0 0 1-.219-1.02 2.6 2.6 0 0 1 .191-1.023c.133-.328.32-.621.57-.871.25-.254.536-.445.864-.582a2.62 2.62 0 0 1 2.898.598ZM150.84 69.031l-10.852-10.765a6.213 6.213 0 0 1-1.184 1.96 6.4 6.4 0 0 1-1.152 1.004c-.21.141-.433.27-.66.387q-.346.17-.703.301a6 6 0 0 1-1.496.328 6.2 6.2 0 0 1-1.527-.047q-.376-.063-.746-.168a7 7 0 0 1-.72-.258 6.2 6.2 0 0 1-1.32-.777 6 6 0 0 1-.574-.504 6 6 0 0 1-.945-1.207 6 6 0 0 1-.352-.68 6 6 0 0 1-.27-.718 7 7 0 0 1-.171-.75 6.1 6.1 0 0 1 .043-2.29c.05-.25.121-.495.203-.738a6 6 0 0 1 .672-1.375 7 7 0 0 1 .457-.617 6.4 6.4 0 0 1 1.129-1.035 6.2 6.2 0 0 1 1.348-.723l-6.07-6.015c-2.45 1.886-4.372 4.57-4.981 7.3-.899 4.336-1.336 8.844-1.348 13.778-.012 4.93.445 9.422 1.344 13.766q.18.773.472 1.511c2.36-3.27 5.075-6.699 7.774-9.726 1.266-1.41 3.148-2.032 5.016-2.04 1.867-.007 3.742.63 5.015 2.04 1.801 2.02 3.602 4.215 5.305 6.425a179 179 0 0 1 6.293-8.367m0 0"/></clipPath><linearGradient id="d" x1="-.07" x2="512.01" y1="256" y2="256" gradientTransform="matrix(.13863 0 0 .13897 114.352 30.47)" gradientUnits="userSpaceOnUse"><stop offset="0" stop-color="#6B7F7F"/><stop offset=".016" stop-color="#6B7F7F"/><stop offset=".031" stop-color="#6C8080"/><stop offset=".047" stop-color="#6C8181"/><stop offset=".063" stop-color="#6D8182"/><stop offset=".078" stop-color="#6E8282"/><stop offset=".094" stop-color="#6E8383"/><stop offset=".109" stop-color="#6F8384"/><stop offset=".125" stop-color="#6F8484"/><stop offset=".141" stop-color="#708585"/><stop offset=".156" stop-color="#708586"/><stop offset=".172" stop-color="#718687"/><stop offset=".188" stop-color="#718787"/><stop offset=".203" stop-color="#728788"/><stop offset=".219" stop-color="#728889"/><stop offset=".234" stop-color="#73898A"/><stop offset=".25" stop-color="#74898A"/><stop offset=".266" stop-color="#748A8B"/><stop offset=".281" stop-color="#758B8C"/><stop offset=".297" stop-color="#758C8C"/><stop offset=".313" stop-color="#768C8D"/><stop offset=".328" stop-color="#768D8E"/><stop offset=".344" stop-color="#778E8F"/><stop offset=".359" stop-color="#778E8F"/><stop offset=".375" stop-color="#788F90"/><stop offset=".391" stop-color="#789091"/><stop offset=".406" stop-color="#799092"/><stop offset=".422" stop-color="#7A9192"/><stop offset=".438" stop-color="#7A9293"/><stop offset=".453" stop-color="#7B9294"/><stop offset=".469" stop-color="#7B9395"/><stop offset=".484" stop-color="#7C9495"/><stop offset=".5" stop-color="#7C9496"/><stop offset=".516" stop-color="#7D9597"/><stop offset=".531" stop-color="#7D9697"/><stop offset=".547" stop-color="#7E9698"/><stop offset=".563" stop-color="#7E9799"/><stop offset=".578" stop-color="#7F989A"/><stop offset=".594" stop-color="#80989A"/><stop offset=".602" stop-color="#80999B"/><stop offset=".609" stop-color="#80999B"/><stop offset=".617" stop-color="#819A9C"/><stop offset=".625" stop-color="#829B9D"/><stop offset=".633" stop-color="#829B9D"/><stop offset=".641" stop-color="#839C9E"/><stop offset=".648" stop-color="#849D9E"/><stop offset=".656" stop-color="#849D9F"/><stop offset=".664" stop-color="#859EA0"/><stop offset=".672" stop-color="#869EA0"/><stop offset=".68" stop-color="#869FA1"/><stop offset=".688" stop-color="#87A0A1"/><stop offset=".695" stop-color="#88A0A2"/><stop offset=".703" stop-color="#88A1A3"/><stop offset=".711" stop-color="#89A2A3"/><stop offset=".719" stop-color="#8AA2A4"/><stop offset=".727" stop-color="#8AA3A4"/><stop offset=".734" stop-color="#8BA3A5"/><stop offset=".742" stop-color="#8CA4A6"/><stop offset=".75" stop-color="#8CA5A6"/><stop offset=".758" stop-color="#8DA5A7"/><stop offset=".766" stop-color="#8EA6A8"/><stop offset=".773" stop-color="#8EA7A8"/><stop offset=".781" stop-color="#8FA7A9"/><stop offset=".789" stop-color="#90A8A9"/><stop offset=".797" stop-color="#90A8AA"/><stop offset=".805" stop-color="#91A9AB"/><stop offset=".813" stop-color="#92AAAB"/><stop offset=".82" stop-color="#92AAAC"/><stop offset=".828" stop-color="#93ABAC"/><stop offset=".836" stop-color="#94ABAD"/><stop offset=".844" stop-color="#94ACAE"/><stop offset=".852" stop-color="#95ADAE"/><stop offset=".859" stop-color="#96ADAF"/><stop offset=".867" stop-color="#96AEAF"/><stop offset=".875" stop-color="#97AFB0"/><stop offset=".883" stop-color="#98AFB1"/><stop offset=".891" stop-color="#98B0B1"/><stop offset=".898" stop-color="#99B0B2"/><stop offset=".906" stop-color="#9AB1B2"/><stop offset=".914" stop-color="#9AB2B3"/><stop offset=".922" stop-color="#9BB2B4"/><stop offset=".93" stop-color="#9CB3B4"/><stop offset=".938" stop-color="#9CB4B5"/><stop offset=".945" stop-color="#9DB4B5"/><stop offset=".953" stop-color="#9EB5B6"/><stop offset=".961" stop-color="#9EB5B7"/><stop offset=".969" stop-color="#9FB6B7"/><stop offset=".977" stop-color="#A0B7B8"/><stop offset=".984" stop-color="#A0B7B8"/><stop offset=".992" stop-color="#A1B8B9"/><stop offset="1" stop-color="#A2B9BA"/></linearGradient></defs><g fill="#fff" clip-path="url(#a)"><path d="M.223 0h299.554v168.5H.223Zm0 0"/><path d="M.223 0h299.554v168.5H.223Zm0 0"/></g><g clip-path="url(#b)"><g clip-path="url(#c)"><path fill="url(#d)" d="M114.344 32.508v67.047h70.988V32.508Zm0 0"/></g></g><path fill="#b8b8b8" d="M100.122 116.713v6.797h-1.28l-3.391-4.125v4.125h-1.547v-6.797H95.2l3.375 4.125v-4.125ZM105.027 123.62q-1.065.001-1.906-.454a3.376 3.376 0 0 1-1.812-3.047q-.001-.998.484-1.797.482-.808 1.328-1.265.841-.452 1.906-.453 1.062 0 1.906.453a3.42 3.42 0 0 1 1.813 3.062q-.002 1.001-.485 1.797a3.4 3.4 0 0 1-1.328 1.25c-.562.305-1.199.453-1.906.453m0-1.329q.608 0 1.094-.281.48-.28.75-.766.28-.498.28-1.125 0-.638-.28-1.125a1.9 1.9 0 0 0-.75-.765 2.14 2.14 0 0 0-1.094-.282q-.597 0-1.094.282a1.95 1.95 0 0 0-.765.765c-.18.325-.266.7-.266 1.125 0 .418.086.793.266 1.125q.28.486.765.766.498.28 1.094.281M112.684 116.713h1.562v6.797h-1.562ZM122.039 123.51v-4.078l-2 3.36h-.719l-1.984-3.266v3.984h-1.469v-6.797h1.297l2.531 4.219 2.516-4.219h1.281l.031 6.797ZM129.605 122.057h-3.157l-.61 1.453h-1.608l3.03-6.797h1.563l3.032 6.797h-1.657Zm-.5-1.203-1.079-2.594-1.078 2.594ZM137.148 120.01h1.438v2.75a3.9 3.9 0 0 1-1.281.64q-.72.219-1.47.22-1.046 0-1.89-.438a3.4 3.4 0 0 1-1.328-1.25 3.45 3.45 0 0 1-.484-1.813q-.001-1.013.484-1.812c.32-.531.766-.945 1.328-1.25q.855-.452 1.922-.453a4.4 4.4 0 0 1 1.625.297q.733.3 1.219.875l-1 .937c-.492-.508-1.078-.766-1.766-.766-.43 0-.812.09-1.156.266q-.502.269-.781.766a2.3 2.3 0 0 0-.282 1.14q0 .627.282 1.125.279.486.78.766.498.28 1.142.281.685.001 1.218-.297ZM145.303 122.244v1.266h-5.25v-6.797h5.125v1.266h-3.562v1.468h3.14v1.235h-3.14v1.562ZM153.78 122.057h-3.155l-.61 1.453h-1.61l3.032-6.797H153l3.03 6.797h-1.655Zm-.5-1.203-1.077-2.594-1.078 2.594ZM163.262 116.713l-2.937 6.797h-1.547l-2.938-6.797h1.703l2.063 4.86 2.094-4.86ZM168.455 122.057H165.3l-.61 1.453h-1.609l3.032-6.797h1.562l3.031 6.797h-1.656Zm-.5-1.203-1.078-2.594-1.078 2.594ZM171.421 116.713h1.563v6.797h-1.563ZM174.604 116.713h1.563v5.516h3.406v1.281h-4.969Zm0 0"/><path fill="#b8b8b8" d="M184.935 122.057h-3.156l-.61 1.453h-1.609l3.032-6.797h1.562l3.031 6.797h-1.656Zm-.5-1.203-1.078-2.594-1.078 2.594ZM192.885 119.979c.383.125.688.336.907.625.218.281.328.633.328 1.047q0 .909-.703 1.39-.692.47-2.016.469h-3.5v-6.797h3.312c.82 0 1.454.164 1.891.484.445.313.672.743.672 1.282q0 .504-.234.89a1.6 1.6 0 0 1-.657.61m-3.422-2.078v1.609h1.563q.576.001.875-.203a.72.72 0 0 0 .297-.61.68.68 0 0 0-.297-.593q-.3-.201-.875-.203Zm1.829 4.421q.62.001.937-.203c.207-.132.313-.343.313-.625q-.001-.843-1.25-.843h-1.829v1.671ZM195.326 116.713h1.562v5.516h3.406v1.281h-4.968ZM206.438 122.244v1.266h-5.25v-6.797h5.125v1.266h-3.563v1.468h3.14v1.235h-3.14v1.562Zm0 0"/></svg>