<svg width="42" height="40" viewBox="0 0 42 40" fill="none" xmlns="http://www.w3.org/2000/svg">
<rect width="41.51" height="40" rx="4.14" fill="#028DAA"/>
<path d="M32.4746 13.9852C33.0137 15.8719 33.0137 19.9149 33.0137 19.9149C33.0137 19.9149 33.0137 23.913 32.4746 25.8446C32.2051 26.9227 31.3516 27.7313 30.3184 28.0009C28.3867 28.495 20.75 28.495 20.75 28.495C20.75 28.495 13.0684 28.495 11.1367 28.0009C10.1035 27.7313 9.25 26.9227 8.98047 25.8446C8.44141 23.913 8.44141 19.9149 8.44141 19.9149C8.44141 19.9149 8.44141 15.8719 8.98047 13.9852C9.25 12.9071 10.1035 12.0536 11.1367 11.7841C13.0684 11.245 20.75 11.245 20.75 11.245C20.75 11.245 28.3867 11.245 30.3184 11.7841C31.3516 12.0536 32.2051 12.9071 32.4746 13.9852ZM18.2344 23.5536L24.6133 19.9149L18.2344 16.2762V23.5536Z" fill="white"/>
</svg>
