<svg xmlns="http://www.w3.org/2000/svg" version="1.1" xmlns:xlink="http://www.w3.org/1999/xlink" xmlns:svgjs="http://svgjs.dev/svgjs" width="1440" height="560" preserveAspectRatio="none" viewBox="0 0 1440 560"><g mask="url(&quot;#SvgjsMask1002&quot;)" fill="none"><rect width="1440" height="560" x="0" y="0" fill="url(&quot;#SvgjsLinearGradient1003&quot;)"></rect><path d="M1440 0L1329.29 0L1440 218.87z" fill="rgba(255, 255, 255, .1)"></path><path d="M1329.29 0L1440 218.87L1440 340.02L1131.08 0z" fill="rgba(255, 255, 255, .075)"></path><path d="M1131.08 0L1440 340.02L1440 354.52L1019.53 0z" fill="rgba(255, 255, 255, .05)"></path><path d="M1019.53 0L1440 354.52L1440 468.45L708.78 0z" fill="rgba(255, 255, 255, .025)"></path><path d="M0 560L586.69 560L0 381.15999999999997z" fill="rgba(0, 0, 0, .1)"></path><path d="M0 381.15999999999997L586.69 560L629.6400000000001 560L0 224.68999999999997z" fill="rgba(0, 0, 0, .075)"></path><path d="M0 224.69L629.6400000000001 560L979.3600000000001 560L0 128.3z" fill="rgba(0, 0, 0, .05)"></path><path d="M0 128.3L979.3600000000001 560L1126.9900000000002 560L0 68.51000000000002z" fill="rgba(0, 0, 0, .025)"></path></g><defs><mask id="SvgjsMask1002"><rect width="1440" height="560" fill="#ffffff"></rect></mask><linearGradient x1="15.28%" y1="-39.29%" x2="84.72%" y2="139.29%" gradientUnits="userSpaceOnUse" id="SvgjsLinearGradient1003"><stop stop-color="#0e2a47" offset="0"></stop><stop stop-color="#00459e" offset="1"></stop></linearGradient></defs></svg>