<?xml version="1.0" standalone="no"?>
<!DOCTYPE svg PUBLIC "-//W3C//DTD SVG 20010904//EN"
 "http://www.w3.org/TR/2001/REC-SVG-20010904/DTD/svg10.dtd">
<svg version="1.0" xmlns="http://www.w3.org/2000/svg"
 width="76.000000pt" height="78.000000pt" viewBox="0 0 76.000000 78.000000"
 preserveAspectRatio="xMidYMid meet">

<g transform="translate(0.000000,78.000000) scale(0.100000,-0.100000)"
fill="#000000" stroke="none">
<path d="M290 747 c-92 -40 -150 -80 -211 -144 -75 -78 -79 -88 -77 -173 l1
-75 6 81 c6 75 9 84 45 128 21 26 61 65 88 87 67 52 194 113 238 113 45 1 169
-59 237 -113 29 -23 71 -64 93 -92 38 -49 40 -54 40 -123 0 -89 -19 -165 -64
-254 -56 -111 -75 -128 -163 -148 -89 -20 -249 -15 -328 10 -45 14 -54 22 -92
83 -35 58 -64 126 -87 208 -3 11 -3 2 0 -20 8 -55 45 -143 89 -209 33 -50 43
-58 93 -74 79 -24 285 -24 364 1 52 16 59 22 98 83 67 106 92 183 98 299 l4
100 -66 72 c-36 39 -91 87 -121 107 -51 35 -171 86 -198 86 -6 0 -46 -15 -87
-33z"/>
<path d="M261 705 c-65 -33 -111 -65 -152 -106 -85 -85 -92 -103 -80 -203 12
-98 41 -179 93 -262 37 -60 40 -62 103 -78 82 -21 228 -21 310 0 61 15 67 20
100 69 65 98 104 222 105 327 0 42 -6 54 -49 106 -57 69 -126 122 -206 158
-94 43 -117 42 -224 -11z m90 -34 c7 11 9 9 9 -7 0 -12 -6 -21 -15 -21 -9 0
-15 9 -14 21 0 13 3 16 6 7 5 -11 7 -11 14 0z m35 -6 c-3 -8 -1 -15 3 -15 5 0
11 7 15 15 3 8 11 15 18 14 10 0 10 -2 1 -6 -25 -10 -13 -22 13 -13 34 13 39
13 24 -5 -10 -12 -10 -15 4 -15 9 0 16 5 16 10 0 6 7 10 15 10 8 0 15 -5 15
-11 0 -5 4 -7 10 -4 6 3 7 -1 4 -10 -6 -14 -8 -14 -20 2 -10 13 -13 14 -11 3
2 -8 2 -12 0 -9 -2 3 -15 4 -28 1 -14 -2 -25 0 -25 5 0 6 -16 9 -35 6 -30 -3
-35 0 -35 17 0 11 5 20 11 20 6 0 9 -7 5 -15z m-83 -15 c3 -11 1 -18 -3 -15
-5 3 -11 1 -15 -5 -4 -6 -11 -8 -16 -5 -5 4 -9 1 -9 -5 0 -6 -4 -9 -9 -6 -5 3
-21 -6 -36 -20 -26 -24 -55 -26 -55 -5 0 16 18 22 26 10 5 -8 3 -9 -6 -4 -9 5
-11 4 -6 -4 10 -15 27 -4 20 13 -3 8 -1 17 5 21 6 3 11 1 11 -4 0 -6 5 -11 11
-11 6 0 9 6 6 14 -3 8 1 17 9 20 9 3 12 1 9 -4 -3 -6 -2 -10 3 -10 6 0 13 7
16 16 3 8 10 12 16 9 5 -3 10 -1 10 4 0 18 7 12 13 -9z m261 -26 c8 -3 12 -12
9 -20 -4 -10 0 -12 12 -7 15 5 17 2 12 -16 -5 -19 -3 -20 10 -9 14 11 15 10 9
-10 -6 -18 -4 -22 14 -22 16 0 20 -4 16 -16 -4 -11 -2 -15 8 -11 21 8 28 -21
8 -33 -15 -9 -15 -10 3 -8 24 4 28 -25 4 -30 -15 -3 -23 12 -34 63 -4 14 -77
90 -87 90 -4 0 -8 3 -8 8 0 4 0 12 0 17 0 12 3 12 24 4z m-134 -43 c4 -16 17
-28 38 -35 19 -7 30 -15 25 -21 -4 -5 0 -3 10 4 20 15 23 26 5 15 -8 -5 -8 -1
1 10 14 16 16 15 44 -12 25 -25 27 -33 18 -51 -9 -15 -9 -26 -1 -42 7 -11 9
-26 7 -33 -3 -7 5 -11 22 -11 24 0 26 -4 29 -44 3 -43 3 -43 -26 -39 -21 3
-28 0 -25 -8 2 -7 -3 -27 -12 -44 -9 -18 -12 -29 -6 -25 16 9 25 -23 12 -39
-12 -14 -20 -13 -83 10 -21 7 -23 20 -6 30 7 5 8 2 3 -7 -5 -8 3 -3 18 10 15
14 23 29 20 39 -4 8 -2 13 3 10 5 -4 10 19 10 50 2 53 1 54 -6 17 -4 -22 -8
-30 -9 -17 -1 27 -17 29 -31 2 -8 -16 -8 -20 4 -20 24 0 28 -18 10 -45 -15
-23 -43 -38 -29 -15 9 14 -8 13 -23 -2 -9 -9 -12 -5 -13 17 0 26 -2 27 -9 10
-6 -14 -9 -2 -11 45 -2 64 -2 64 -9 20 -6 -37 -7 -30 -8 43 -1 49 1 86 6 84 4
-3 7 19 8 48 0 37 -3 50 -10 42 -6 -5 -12 -62 -14 -131 -2 -66 -6 -123 -8
-125 -10 -11 -14 14 -19 125 -4 78 -2 112 4 99 9 -19 10 -19 10 2 1 12 4 28 7
37 3 9 2 16 -2 16 -11 0 -34 -48 -34 -71 0 -9 -8 -19 -17 -22 -10 -2 -27 -8
-37 -13 -15 -6 -17 -4 -11 7 4 8 -6 1 -23 -15 -19 -17 -28 -34 -25 -44 4 -9 2
-13 -4 -9 -7 5 -9 -1 -6 -15 3 -14 1 -18 -4 -11 -5 6 -8 -11 -8 -42 0 -31 3
-48 8 -42 6 8 7 4 4 -9 -3 -13 1 -21 10 -21 9 0 11 7 7 20 -3 11 -2 17 3 14 5
-3 15 -2 23 3 11 7 11 11 1 24 -17 21 -28 20 -34 -1 -3 -12 -5 -10 -6 7 -2 49
9 67 35 62 15 -3 24 0 24 8 0 8 -8 10 -21 7 -19 -5 -19 -4 -6 16 7 11 20 23
28 26 12 4 12 2 0 -13 -12 -14 -11 -16 7 -13 12 2 25 7 29 12 5 4 3 5 -3 2 -7
-4 -14 -1 -17 7 -3 8 1 17 9 20 23 9 31 7 31 -6 0 -7 4 -49 8 -92 6 -63 5 -77
-5 -71 -9 5 -11 4 -6 -3 4 -7 1 -12 -10 -12 -12 0 -15 -6 -12 -25 5 -25 -5
-34 -17 -15 -3 6 -11 10 -17 10 -6 0 -5 -7 3 -18 7 -9 1 -6 -14 7 -15 14 -27
19 -27 12 0 -7 -5 -9 -12 -5 -7 4 -3 -4 10 -18 20 -22 26 -24 57 -14 19 6 35
14 35 18 0 4 7 5 15 2 8 -4 15 -1 15 5 0 6 -9 11 -20 11 -11 0 -20 5 -20 11 0
5 5 7 10 4 6 -3 10 -1 10 4 0 6 14 11 30 11 20 0 30 -5 30 -15 0 -8 -4 -15
-10 -15 -5 0 -10 -4 -10 -9 0 -5 8 -8 17 -7 12 0 19 -7 21 -22 3 -22 1 -23
-65 -20 -42 1 -82 -3 -102 -12 -28 -11 -37 -11 -55 0 -20 12 -20 12 -3 -7 9
-11 14 -24 10 -28 -5 -5 1 -3 11 5 13 10 17 10 12 3 -6 -10 26 -13 144 -13
112 0 149 3 144 12 -5 7 -3 8 7 2 8 -5 25 -10 39 -12 65 -9 16 -12 -181 -12
-156 1 -209 3 -196 11 18 10 18 12 1 30 -16 18 -13 34 7 34 25 0 -18 83 -45
87 -17 2 -21 10 -21 43 0 33 4 41 22 43 30 4 51 57 34 84 -11 18 -9 24 15 49
15 15 31 26 36 23 4 -3 6 -9 4 -13 -3 -4 17 -7 44 -6 26 0 46 3 44 7 -3 4 -2
19 2 33 6 23 11 26 47 23 34 -2 42 -7 47 -27z m-269 -17 c12 -15 11 -16 -11
-10 -20 6 -22 5 -8 -4 16 -10 16 -13 -3 -45 -12 -19 -26 -35 -31 -35 -6 0 -8
-7 -4 -15 3 -9 0 -15 -9 -15 -20 0 -29 19 -12 26 9 3 13 13 10 25 -4 14 0 19
13 19 16 0 17 2 4 11 -12 8 -10 9 8 4 22 -6 31 8 12 20 -8 5 -7 11 1 21 14 17
14 17 30 -2z m119 -77 c0 -2 -10 -12 -22 -23 l-23 -19 19 23 c18 21 26 27 26
19z m240 -211 c0 -2 -8 -10 -17 -17 -16 -13 -17 -12 -4 4 13 16 21 21 21 13z
m-249 -23 c13 -16 12 -17 -3 -4 -10 7 -18 15 -18 17 0 8 8 3 21 -13z m189 -18
c0 -8 -4 -15 -10 -15 -5 0 -10 7 -10 15 0 8 5 15 10 15 6 0 10 -7 10 -15z m-7
-42 c-34 -2 -93 -2 -130 0 -37 2 -9 3 62 3 72 0 102 -1 68 -3z m-88 -52 c11
-5 33 -4 48 2 36 12 113 -15 120 -43 3 -11 4 -20 2 -20 -13 0 -54 24 -50 29 2
4 -21 4 -51 1 -30 -3 -78 -3 -108 0 -30 3 -53 3 -51 -1 4 -5 -37 -29 -50 -29
-2 0 -1 9 2 19 5 21 64 50 98 50 11 0 29 -4 40 -8z"/>
<path d="M546 528 c10 -14 21 -24 23 -22 3 3 -6 15 -18 27 l-24 22 19 -27z"/>
<path d="M200 524 c-11 -12 -10 -18 5 -32 18 -16 18 -16 6 1 -11 14 -11 20 -1
32 7 8 10 15 7 15 -2 0 -10 -7 -17 -16z"/>
<path d="M475 501 c6 -11 4 -13 -7 -8 -11 4 -15 1 -13 -11 2 -9 4 -20 4 -24 1
-5 9 -8 19 -8 16 1 16 2 -2 15 -18 13 -18 14 2 12 12 0 19 -3 17 -6 -3 -2 0
-10 7 -18 6 -7 8 -16 4 -20 -3 -3 -6 -1 -6 5 0 6 -6 9 -14 6 -8 -3 -12 -12 -9
-20 4 -10 10 -11 24 -3 12 6 19 6 19 0 0 -5 -9 -13 -20 -16 -11 -4 -18 -11
-15 -16 12 -18 31 -8 42 21 8 21 8 28 0 23 -6 -4 -8 0 -4 9 3 10 -6 27 -25 44
-17 16 -27 23 -23 15z"/>
<path d="M540 471 c0 -6 4 -13 10 -16 6 -3 7 1 4 9 -7 18 -14 21 -14 7z"/>
<path d="M426 462 c-3 -5 1 -9 9 -9 8 0 12 4 9 9 -3 4 -7 8 -9 8 -2 0 -6 -4
-9 -8z"/>
<path d="M246 403 c-12 -12 -5 -23 14 -23 11 0 20 4 20 9 0 11 -26 22 -34 14z"/>
<path d="M140 365 c0 -19 3 -35 8 -35 4 0 7 16 7 35 0 19 -3 35 -7 35 -5 0 -8
-16 -8 -35z"/>
<path d="M605 365 c0 -19 3 -35 8 -35 4 0 7 16 7 35 0 19 -3 35 -7 35 -5 0 -8
-16 -8 -35z"/>
<path d="M551 364 c0 -11 3 -14 6 -6 3 7 2 16 -1 19 -3 4 -6 -2 -5 -13z"/>
<path d="M260 306 c0 -9 7 -16 16 -16 17 0 14 22 -4 28 -7 2 -12 -3 -12 -12z"/>
<path d="M475 309 c-10 -15 1 -23 20 -15 9 3 13 10 10 16 -8 13 -22 13 -30 -1z"/>
<path d="M556 213 c-6 -14 -5 -15 5 -6 7 7 10 15 7 18 -3 3 -9 -2 -12 -12z"/>
<path d="M113 503 c-15 -5 -17 -23 -4 -23 5 0 11 7 15 15 3 8 4 15 3 14 -1 0
-8 -3 -14 -6z"/>
</g>
</svg>
