<svg width="40" height="40" viewBox="0 0 40 40" fill="none" xmlns="http://www.w3.org/2000/svg">
<rect width="40" height="40" rx="4.14" fill="#028DAA"/>
<path d="M20 14.704C22.8301 14.704 25.166 17.0399 25.166 19.87C25.166 22.745 22.8301 25.036 20 25.036C17.125 25.036 14.834 22.745 14.834 19.87C14.834 17.0399 17.125 14.704 20 14.704ZM20 23.2391C21.8418 23.2391 23.3242 21.7567 23.3242 19.87C23.3242 18.0282 21.8418 16.5458 20 16.5458C18.1133 16.5458 16.6309 18.0282 16.6309 19.87C16.6309 21.7567 18.1582 23.2391 20 23.2391ZM26.5586 14.5243C26.5586 15.1981 26.0195 15.7372 25.3457 15.7372C24.6719 15.7372 24.1328 15.1981 24.1328 14.5243C24.1328 13.8505 24.6719 13.3114 25.3457 13.3114C26.0195 13.3114 26.5586 13.8505 26.5586 14.5243ZM29.9727 15.7372C30.0625 17.3993 30.0625 22.3856 29.9727 24.0477C29.8828 25.6649 29.5234 27.0575 28.3555 28.2704C27.1875 29.4384 25.75 29.7977 24.1328 29.8876C22.4707 29.9774 17.4844 29.9774 15.8223 29.8876C14.2051 29.7977 12.8125 29.4384 11.5996 28.2704C10.4316 27.0575 10.0723 25.6649 9.98242 24.0477C9.89258 22.3856 9.89258 17.3993 9.98242 15.7372C10.0723 14.12 10.4316 12.6825 11.5996 11.5145C12.8125 10.3466 14.2051 9.98718 15.8223 9.89734C17.4844 9.8075 22.4707 9.8075 24.1328 9.89734C25.75 9.98718 27.1875 10.3466 28.3555 11.5145C29.5234 12.6825 29.8828 14.12 29.9727 15.7372ZM27.8164 25.7997C28.3555 24.4969 28.2207 21.3524 28.2207 19.87C28.2207 18.4325 28.3555 15.288 27.8164 13.9403C27.457 13.0868 26.7832 12.368 25.9297 12.0536C24.582 11.5145 21.4375 11.6493 20 11.6493C18.5176 11.6493 15.373 11.5145 14.0703 12.0536C13.1719 12.413 12.498 13.0868 12.1387 13.9403C11.5996 15.288 11.7344 18.4325 11.7344 19.87C11.7344 21.3524 11.5996 24.4969 12.1387 25.7997C12.498 26.6981 13.1719 27.3719 14.0703 27.7313C15.373 28.2704 18.5176 28.1356 20 28.1356C21.4375 28.1356 24.582 28.2704 25.9297 27.7313C26.7832 27.3719 27.502 26.6981 27.8164 25.7997Z" fill="white"/>
</svg>
