<svg width="40" height="40" viewBox="0 0 40 40" fill="none" xmlns="http://www.w3.org/2000/svg">
<rect width="40" height="40" rx="4.14" fill="#028DAA"/>
<path d="M31.7196 13.9854C32.2587 15.8721 32.2587 19.915 32.2587 19.915C32.2587 19.915 32.2587 23.9131 31.7196 25.8447C31.4501 26.9229 30.5966 27.7314 29.5634 28.001C27.6317 28.4951 19.995 28.4951 19.995 28.4951C19.995 28.4951 12.3134 28.4951 10.3817 28.001C9.34851 27.7314 8.495 26.9229 8.22546 25.8447C7.6864 23.9131 7.6864 19.915 7.6864 19.915C7.6864 19.915 7.6864 15.8721 8.22546 13.9854C8.495 12.9072 9.34851 12.0537 10.3817 11.7842C12.3134 11.2451 19.995 11.2451 19.995 11.2451C19.995 11.2451 27.6317 11.2451 29.5634 11.7842C30.5966 12.0537 31.4501 12.9072 31.7196 13.9854ZM17.4794 23.5537L23.8583 19.915L17.4794 16.2764V23.5537Z" fill="white"/>
</svg>
