<?xml version="1.0" standalone="no"?>
<!DOCTYPE svg PUBLIC "-//W3C//DTD SVG 20010904//EN"
 "http://www.w3.org/TR/2001/REC-SVG-20010904/DTD/svg10.dtd">
<svg version="1.0" xmlns="http://www.w3.org/2000/svg"
 width="69.000000pt" height="70.000000pt" viewBox="0 0 69.000000 70.000000"
 preserveAspectRatio="xMidYMid meet">

<g transform="translate(0.000000,70.000000) scale(0.100000,-0.100000)"
fill="#000000" stroke="none">
<path d="M277 679 c-94 -22 -181 -89 -225 -174 -37 -72 -42 -188 -13 -266 27
-72 84 -137 152 -174 45 -24 69 -30 140 -33 78 -4 93 -2 148 23 62 28 135 95
164 151 23 46 40 142 32 193 -15 102 -86 206 -172 249 -41 21 -130 43 -166 41
-12 -1 -39 -5 -60 -10z m-34 -214 c20 -20 20 -130 0 -150 -9 -10 -35 -15 -71
-15 l-57 0 2 56 c1 54 20 95 30 67 7 -19 73 -17 73 2 0 10 -10 15 -34 15 -44
0 -66 9 -66 26 0 20 103 19 123 -1z m65 3 c7 -7 12 -36 12 -66 0 -46 -3 -53
-17 -50 -15 3 -19 16 -21 66 -3 62 3 73 26 50z m146 6 c12 -4 16 -20 16 -54 0
-66 7 -80 41 -80 26 0 29 3 29 33 0 31 14 57 32 57 4 0 8 -29 8 -65 l0 -65
-49 0 c-75 0 -94 21 -99 109 -2 39 -2 71 1 71 3 0 12 -3 21 -6z m126 -14 c0
-11 -4 -20 -10 -20 -5 0 -14 9 -20 20 -9 17 -8 20 10 20 13 0 20 -7 20 -20z
m-164 -137 c17 -17 14 -18 -55 -21 -80 -3 -90 0 -71 23 18 22 103 20 126 -2z
m-90 -60 c-6 -17 -5 -17 8 0 7 9 23 17 35 17 13 0 21 -6 21 -17 1 -17 1 -17
11 0 5 9 19 17 29 17 12 0 20 -7 20 -17 1 -17 1 -17 11 0 15 25 49 22 50 -5
l2 -23 4 23 c5 26 50 31 59 7 13 -32 -15 -45 -97 -44 -44 1 -82 5 -85 10 -8
14 -54 11 -54 -3 0 -9 -4 -8 -10 2 -6 10 -10 11 -10 3 0 -7 -12 -13 -26 -13
-21 0 -25 4 -20 18 5 14 3 13 -9 -3 -14 -17 -17 -18 -25 -5 -7 10 -10 11 -10
3 0 -7 -5 -13 -11 -13 -5 0 -7 5 -4 10 3 6 1 10 -5 10 -6 0 -8 5 -5 10 3 6 15
10 26 10 10 0 19 5 19 10 0 6 18 10 41 10 35 0 40 -3 35 -17z"/>
<path d="M150 355 c0 -10 11 -15 35 -15 24 0 35 5 35 15 0 10 -11 15 -35 15
-24 0 -35 -5 -35 -15z"/>
<path d="M358 253 c7 -3 16 -2 19 1 4 3 -2 6 -13 5 -11 0 -14 -3 -6 -6z"/>
<path d="M530 250 c0 -5 7 -10 15 -10 8 0 15 5 15 10 0 6 -7 10 -15 10 -8 0
-15 -4 -15 -10z"/>
</g>
</svg>
