<svg xmlns="http://www.w3.org/2000/svg" xmlns:xlink="http://www.w3.org/1999/xlink" width="400" zoomAndPan="magnify" viewBox="0 0 300 168.749997" height="225" preserveAspectRatio="xMidYMid meet" version="1.0"><defs><g/><clipPath id="0eac7e975b"><path d="M 0.222656 0 L 299.777344 0 L 299.777344 168.5 L 0.222656 168.5 Z M 0.222656 0 " clip-rule="nonzero"/></clipPath><clipPath id="8d174d09e5"><path d="M 115.644531 35.117188 L 173 35.117188 L 173 84 L 115.644531 84 Z M 115.644531 35.117188 " clip-rule="nonzero"/></clipPath><clipPath id="7595704611"><path d="M 155 67 L 184.386719 67 L 184.386719 96.101562 L 155 96.101562 Z M 155 67 " clip-rule="nonzero"/></clipPath></defs><g clip-path="url(#0eac7e975b)"><path fill="#ffffff" d="M 0.222656 0 L 299.777344 0 L 299.777344 168.5 L 0.222656 168.5 Z M 0.222656 0 " fill-opacity="1" fill-rule="nonzero"/><path fill="#ffffff" d="M 0.222656 0 L 299.777344 0 L 299.777344 168.5 L 0.222656 168.5 Z M 0.222656 0 " fill-opacity="1" fill-rule="nonzero"/></g><g fill="#b8b8b8" fill-opacity="1"><g transform="translate(84.450072, 129.471258)"><g><path d="M 8.09375 -7.8125 L 8.09375 0 L 6.609375 0 L 2.71875 -4.75 L 2.71875 0 L 0.921875 0 L 0.921875 -7.8125 L 2.421875 -7.8125 L 6.3125 -3.078125 L 6.3125 -7.8125 Z M 8.09375 -7.8125 "/></g></g></g><g fill="#b8b8b8" fill-opacity="1"><g transform="translate(93.48281, 129.471258)"><g><path d="M 4.71875 0.140625 C 3.90625 0.140625 3.171875 -0.0351562 2.515625 -0.390625 C 1.867188 -0.742188 1.359375 -1.226562 0.984375 -1.84375 C 0.617188 -2.457031 0.4375 -3.144531 0.4375 -3.90625 C 0.4375 -4.675781 0.617188 -5.367188 0.984375 -5.984375 C 1.359375 -6.597656 1.867188 -7.078125 2.515625 -7.421875 C 3.171875 -7.773438 3.90625 -7.953125 4.71875 -7.953125 C 5.53125 -7.953125 6.257812 -7.773438 6.90625 -7.421875 C 7.550781 -7.078125 8.0625 -6.597656 8.4375 -5.984375 C 8.8125 -5.367188 9 -4.675781 9 -3.90625 C 9 -3.144531 8.8125 -2.457031 8.4375 -1.84375 C 8.0625 -1.226562 7.550781 -0.742188 6.90625 -0.390625 C 6.257812 -0.0351562 5.53125 0.140625 4.71875 0.140625 Z M 4.71875 -1.40625 C 5.175781 -1.40625 5.59375 -1.507812 5.96875 -1.71875 C 6.34375 -1.9375 6.632812 -2.234375 6.84375 -2.609375 C 7.050781 -2.992188 7.15625 -3.425781 7.15625 -3.90625 C 7.15625 -4.394531 7.050781 -4.828125 6.84375 -5.203125 C 6.632812 -5.585938 6.34375 -5.882812 5.96875 -6.09375 C 5.59375 -6.300781 5.175781 -6.40625 4.71875 -6.40625 C 4.25 -6.40625 3.828125 -6.300781 3.453125 -6.09375 C 3.085938 -5.882812 2.796875 -5.585938 2.578125 -5.203125 C 2.367188 -4.828125 2.265625 -4.394531 2.265625 -3.90625 C 2.265625 -3.425781 2.367188 -2.992188 2.578125 -2.609375 C 2.796875 -2.234375 3.085938 -1.9375 3.453125 -1.71875 C 3.828125 -1.507812 4.25 -1.40625 4.71875 -1.40625 Z M 4.71875 -1.40625 "/></g></g></g><g fill="#b8b8b8" fill-opacity="1"><g transform="translate(102.917998, 129.471258)"><g/></g></g><g fill="#b8b8b8" fill-opacity="1"><g transform="translate(106.081696, 129.471258)"><g><path d="M 0.921875 -7.8125 L 2.734375 -7.8125 L 2.734375 0 L 0.921875 0 Z M 0.921875 -7.8125 "/></g></g></g><g fill="#b8b8b8" fill-opacity="1"><g transform="translate(109.748455, 129.471258)"><g><path d="M 8.046875 0 L 8.03125 -4.6875 L 5.734375 -0.828125 L 4.921875 -0.828125 L 2.625 -4.59375 L 2.625 0 L 0.921875 0 L 0.921875 -7.8125 L 2.421875 -7.8125 L 5.34375 -2.953125 L 8.234375 -7.8125 L 9.71875 -7.8125 L 9.734375 0 Z M 8.046875 0 "/></g></g></g><g fill="#b8b8b8" fill-opacity="1"><g transform="translate(120.424525, 129.471258)"><g><path d="M 6.078125 -1.671875 L 2.453125 -1.671875 L 1.75 0 L -0.09375 0 L 3.390625 -7.8125 L 5.171875 -7.8125 L 8.671875 0 L 6.765625 0 Z M 5.5 -3.046875 L 4.265625 -6.046875 L 3.03125 -3.046875 Z M 5.5 -3.046875 "/></g></g></g><g fill="#b8b8b8" fill-opacity="1"><g transform="translate(128.987742, 129.471258)"><g><path d="M 6.21875 -4.03125 L 7.859375 -4.03125 L 7.859375 -0.859375 C 7.441406 -0.535156 6.953125 -0.285156 6.390625 -0.109375 C 5.828125 0.0546875 5.265625 0.140625 4.703125 0.140625 C 3.890625 0.140625 3.160156 -0.03125 2.515625 -0.375 C 1.867188 -0.726562 1.359375 -1.210938 0.984375 -1.828125 C 0.617188 -2.441406 0.4375 -3.132812 0.4375 -3.90625 C 0.4375 -4.6875 0.617188 -5.382812 0.984375 -6 C 1.359375 -6.613281 1.875 -7.09375 2.53125 -7.4375 C 3.1875 -7.78125 3.921875 -7.953125 4.734375 -7.953125 C 5.421875 -7.953125 6.039062 -7.835938 6.59375 -7.609375 C 7.15625 -7.378906 7.628906 -7.046875 8.015625 -6.609375 L 6.84375 -5.53125 C 6.289062 -6.113281 5.617188 -6.40625 4.828125 -6.40625 C 4.328125 -6.40625 3.882812 -6.300781 3.5 -6.09375 C 3.113281 -5.882812 2.8125 -5.585938 2.59375 -5.203125 C 2.375 -4.828125 2.265625 -4.394531 2.265625 -3.90625 C 2.265625 -3.425781 2.375 -2.992188 2.59375 -2.609375 C 2.8125 -2.234375 3.109375 -1.9375 3.484375 -1.71875 C 3.867188 -1.507812 4.304688 -1.40625 4.796875 -1.40625 C 5.316406 -1.40625 5.789062 -1.519531 6.21875 -1.75 Z M 6.21875 -4.03125 "/></g></g></g><g fill="#b8b8b8" fill-opacity="1"><g transform="translate(137.606856, 129.471258)"><g><path d="M 6.984375 -1.453125 L 6.984375 0 L 0.921875 0 L 0.921875 -7.8125 L 6.84375 -7.8125 L 6.84375 -6.375 L 2.71875 -6.375 L 2.71875 -4.671875 L 6.359375 -4.671875 L 6.359375 -3.265625 L 2.71875 -3.265625 L 2.71875 -1.453125 Z M 6.984375 -1.453125 "/></g></g></g><g fill="#b8b8b8" fill-opacity="1"><g transform="translate(145.108054, 129.471258)"><g/></g></g><g fill="#b8b8b8" fill-opacity="1"><g transform="translate(148.271753, 129.471258)"><g><path d="M 6.078125 -1.671875 L 2.453125 -1.671875 L 1.75 0 L -0.09375 0 L 3.390625 -7.8125 L 5.171875 -7.8125 L 8.671875 0 L 6.765625 0 Z M 5.5 -3.046875 L 4.265625 -6.046875 L 3.03125 -3.046875 Z M 5.5 -3.046875 "/></g></g></g><g fill="#b8b8b8" fill-opacity="1"><g transform="translate(156.834969, 129.471258)"><g><path d="M 8.453125 -7.8125 L 5.0625 0 L 3.265625 0 L -0.09375 -7.8125 L 1.859375 -7.8125 L 4.234375 -2.234375 L 6.640625 -7.8125 Z M 8.453125 -7.8125 "/></g></g></g><g fill="#b8b8b8" fill-opacity="1"><g transform="translate(165.174599, 129.471258)"><g><path d="M 6.078125 -1.671875 L 2.453125 -1.671875 L 1.75 0 L -0.09375 0 L 3.390625 -7.8125 L 5.171875 -7.8125 L 8.671875 0 L 6.765625 0 Z M 5.5 -3.046875 L 4.265625 -6.046875 L 3.03125 -3.046875 Z M 5.5 -3.046875 "/></g></g></g><g fill="#b8b8b8" fill-opacity="1"><g transform="translate(173.737816, 129.471258)"><g><path d="M 0.921875 -7.8125 L 2.734375 -7.8125 L 2.734375 0 L 0.921875 0 Z M 0.921875 -7.8125 "/></g></g></g><g fill="#b8b8b8" fill-opacity="1"><g transform="translate(177.404575, 129.471258)"><g><path d="M 0.921875 -7.8125 L 2.734375 -7.8125 L 2.734375 -1.46875 L 6.65625 -1.46875 L 6.65625 0 L 0.921875 0 Z M 0.921875 -7.8125 "/></g></g></g><g fill="#b8b8b8" fill-opacity="1"><g transform="translate(184.156769, 129.471258)"><g><path d="M 6.078125 -1.671875 L 2.453125 -1.671875 L 1.75 0 L -0.09375 0 L 3.390625 -7.8125 L 5.171875 -7.8125 L 8.671875 0 L 6.765625 0 Z M 5.5 -3.046875 L 4.265625 -6.046875 L 3.03125 -3.046875 Z M 5.5 -3.046875 "/></g></g></g><g fill="#b8b8b8" fill-opacity="1"><g transform="translate(192.719985, 129.471258)"><g><path d="M 6.671875 -4.0625 C 7.117188 -3.925781 7.46875 -3.691406 7.71875 -3.359375 C 7.96875 -3.023438 8.09375 -2.617188 8.09375 -2.140625 C 8.09375 -1.453125 7.828125 -0.921875 7.296875 -0.546875 C 6.765625 -0.179688 5.988281 0 4.96875 0 L 0.921875 0 L 0.921875 -7.8125 L 4.75 -7.8125 C 5.695312 -7.8125 6.425781 -7.628906 6.9375 -7.265625 C 7.445312 -6.898438 7.703125 -6.40625 7.703125 -5.78125 C 7.703125 -5.40625 7.609375 -5.066406 7.421875 -4.765625 C 7.242188 -4.472656 6.992188 -4.238281 6.671875 -4.0625 Z M 2.71875 -6.453125 L 2.71875 -4.609375 L 4.53125 -4.609375 C 4.96875 -4.609375 5.300781 -4.6875 5.53125 -4.84375 C 5.769531 -5 5.890625 -5.234375 5.890625 -5.546875 C 5.890625 -5.847656 5.769531 -6.070312 5.53125 -6.21875 C 5.300781 -6.375 4.96875 -6.453125 4.53125 -6.453125 Z M 4.84375 -1.359375 C 5.3125 -1.359375 5.664062 -1.4375 5.90625 -1.59375 C 6.15625 -1.75 6.28125 -1.992188 6.28125 -2.328125 C 6.28125 -2.972656 5.800781 -3.296875 4.84375 -3.296875 L 2.71875 -3.296875 L 2.71875 -1.359375 Z M 4.84375 -1.359375 "/></g></g></g><g fill="#b8b8b8" fill-opacity="1"><g transform="translate(201.272019, 129.471258)"><g><path d="M 0.921875 -7.8125 L 2.734375 -7.8125 L 2.734375 -1.46875 L 6.65625 -1.46875 L 6.65625 0 L 0.921875 0 Z M 0.921875 -7.8125 "/></g></g></g><g fill="#b8b8b8" fill-opacity="1"><g transform="translate(208.024212, 129.471258)"><g><path d="M 6.984375 -1.453125 L 6.984375 0 L 0.921875 0 L 0.921875 -7.8125 L 6.84375 -7.8125 L 6.84375 -6.375 L 2.71875 -6.375 L 2.71875 -4.671875 L 6.359375 -4.671875 L 6.359375 -3.265625 L 2.71875 -3.265625 L 2.71875 -1.453125 Z M 6.984375 -1.453125 "/></g></g></g><g clip-path="url(#8d174d09e5)"><path fill="#b8b8b8" d="M 125.515625 75.011719 C 124.589844 75.011719 124.027344 73.984375 124.511719 73.210938 L 133.523438 58.871094 C 133.984375 58.140625 135.054688 58.140625 135.511719 58.871094 L 140.089844 66.144531 L 148.4375 52.828125 C 148.898438 52.113281 149.96875 52.113281 150.425781 52.828125 L 159.128906 66.6875 C 162.1875 64.46875 165.941406 63.164062 169.984375 63.164062 C 170.699219 63.164062 171.386719 63.210938 172.082031 63.289062 L 172.082031 37.214844 C 172.082031 36.054688 171.140625 35.117188 169.984375 35.117188 L 117.742188 35.117188 C 116.589844 35.117188 115.644531 36.054688 115.644531 37.214844 L 115.644531 81.726562 C 115.644531 82.875 116.582031 83.824219 117.742188 83.824219 L 151.554688 83.824219 C 151.46875 83.128906 151.433594 82.441406 151.433594 81.726562 C 151.433594 79.351562 151.871094 77.089844 152.691406 75.011719 Z M 133.695312 44.359375 C 136.191406 44.359375 138.222656 46.390625 138.222656 48.910156 C 138.222656 51.425781 136.191406 53.4375 133.695312 53.4375 C 131.179688 53.4375 129.148438 51.425781 129.148438 48.910156 C 129.148438 46.390625 131.179688 44.359375 133.695312 44.359375 Z M 133.695312 44.359375 " fill-opacity="1" fill-rule="nonzero"/></g><g clip-path="url(#7595704611)"><path fill="#b8b8b8" d="M 169.984375 67.355469 C 162.0625 67.355469 155.613281 73.796875 155.613281 81.726562 C 155.613281 89.652344 162.058594 96.097656 169.984375 96.097656 C 177.910156 96.097656 184.355469 89.652344 184.355469 81.726562 C 184.355469 73.796875 177.910156 67.355469 169.984375 67.355469 Z M 159.808594 81.71875 C 159.808594 79.671875 160.429688 77.769531 161.472656 76.171875 L 175.53125 90.230469 C 173.933594 91.28125 172.03125 91.894531 169.984375 91.894531 C 164.371094 91.902344 159.808594 87.332031 159.808594 81.71875 Z M 178.496094 87.265625 L 164.4375 73.210938 C 166.035156 72.171875 167.9375 71.546875 169.984375 71.546875 C 175.597656 71.546875 180.160156 76.113281 180.160156 81.726562 C 180.160156 83.773438 179.546875 85.667969 178.496094 87.265625 Z M 178.496094 87.265625 " fill-opacity="1" fill-rule="nonzero"/></g></svg>