<svg width="40" height="40" viewBox="0 0 40 40" fill="none" xmlns="http://www.w3.org/2000/svg">
<rect width="40" height="40" rx="4.14" fill="#028DAA"/>
<path d="M29.1141 15.1981C29.1141 15.4227 29.1141 15.6024 29.1141 15.827C29.1141 22.0712 24.3973 29.2137 15.7274 29.2137C13.0321 29.2137 10.5614 28.4501 8.495 27.1024C8.85437 27.1473 9.21375 27.1923 9.61804 27.1923C11.8192 27.1923 13.8407 26.4286 15.4579 25.1708C13.3915 25.1259 11.6395 23.7782 11.0555 21.8915C11.37 21.9364 11.6395 21.9813 11.954 21.9813C12.3583 21.9813 12.8075 21.8915 13.1669 21.8016C11.0106 21.3524 9.39343 19.4657 9.39343 17.1747V17.1298C10.0223 17.4891 10.786 17.6688 11.5497 17.7137C10.2469 16.8602 9.43835 15.4227 9.43835 13.8055C9.43835 12.9071 9.66296 12.0985 10.0673 11.4247C12.4032 14.2548 15.9071 16.1415 19.8153 16.3661C19.7255 16.0067 19.6805 15.6473 19.6805 15.288C19.6805 12.6825 21.7919 10.5712 24.3973 10.5712C25.745 10.5712 26.9579 11.1102 27.8563 12.0536C28.8895 11.829 29.9227 11.4247 30.8212 10.8856C30.4618 12.0087 29.743 12.9071 28.7548 13.4911C29.6981 13.4012 30.6415 13.1317 31.4501 12.7723C30.8212 13.7157 30.0126 14.5243 29.1141 15.1981Z" fill="white"/>
</svg>
