<svg width="40" height="40" viewBox="0 0 40 40" fill="none" xmlns="http://www.w3.org/2000/svg">
<rect width="40" height="40" rx="4.14" fill="#028DAA"/>
<path d="M31.1356 19.87C31.1356 25.4403 27.0477 30.0673 21.702 30.8759V23.1044H24.3075L24.8016 19.87H21.702V17.8036C21.702 16.9052 22.1512 16.0516 23.5438 16.0516H24.9364V13.3114C24.9364 13.3114 23.6786 13.0868 22.4208 13.0868C19.9052 13.0868 18.243 14.6591 18.243 17.4442V19.87H15.413V23.1044H18.243V30.8759C12.8973 30.0673 8.85437 25.4403 8.85437 19.87C8.85437 13.7157 13.8407 8.72937 19.995 8.72937C26.1493 8.72937 31.1356 13.7157 31.1356 19.87Z" fill="white"/>
</svg>
